<mxfile host="app.diagrams.net" modified="2024-04-16T20:13:34.758Z" agent="Mozilla/5.0 (Windows NT 10.0; Win64; x64) AppleWebKit/537.36 (KHTML, like Gecko) Chrome/123.0.0.0 Safari/537.36" version="24.2.5" etag="dv9mQ-TQIPJdHbZ5jXx3" type="github">
  <diagram name="Page-1" id="WzgUVukWoC8VZjV3r4jG">
    <mxGraphModel>
      <root>
        <mxCell id="0" />
        <mxCell id="1" parent="0" />
      </root>
    </mxGraphModel>
  </diagram>
</mxfile>
